<svg width="22" height="22" viewBox="0 0 22 22" fill="none" xmlns="http://www.w3.org/2000/svg">
<path d="M17.1114 10.1416L7.32114 0.351461C7.0947 0.124845 6.79243 0 6.47012 0C6.14782 0 5.84554 0.124845 5.61911 0.351461L4.89812 1.07227C4.42897 1.54195 4.42897 2.30533 4.89812 2.7743L13.1193 10.9954L4.889 19.2257C4.66256 19.4523 4.53754 19.7544 4.53754 20.0765C4.53754 20.399 4.66256 20.7011 4.889 20.9279L5.60998 21.6485C5.8366 21.8752 6.13869 22 6.461 22C6.78331 22 7.08558 21.8752 7.31202 21.6485L17.1114 11.8495C17.3384 11.6222 17.4631 11.3186 17.4623 10.996C17.4631 10.6721 17.3384 10.3687 17.1114 10.1416Z" fill="white"/>
</svg>
